<?xml version="1.0" encoding="UTF-8" standalone="no"?>
<!DOCTYPE svg PUBLIC "-//W3C//DTD SVG 1.1//EN"
 "http://www.w3.org/Graphics/SVG/1.1/DTD/svg11.dtd">
<!-- Generated by graphviz version 2.47.3 (0)
 -->
<!-- Pages: 1 -->
<svg width="322pt" height="260pt"
 viewBox="0.00 0.00 321.99 260.00" xmlns="http://www.w3.org/2000/svg" xmlns:xlink="http://www.w3.org/1999/xlink">
<g id="graph0" class="graph" transform="scale(1 1) rotate(0) translate(4 256)">
<!-- libcurl -->
<g id="node1" class="node">
<title>libcurl</title>
<ellipse fill="none" stroke="#2bbc8a" cx="48.1" cy="-162" rx="48.19" ry="18"/>
<text text-anchor="middle" x="48.1" y="-158.3" font-family="Fira Mono" font-size="14.00" fill="#eeeeee">libcurl</text>
</g>
<!-- mbedtls -->
<g id="node2" class="node">
<title>mbedtls</title>
<ellipse fill="none" stroke="#2bbc8a" cx="63.1" cy="-18" rx="48.19" ry="18"/>
<text text-anchor="middle" x="63.1" y="-14.3" font-family="Fira Mono" font-size="14.00" fill="#eeeeee">mbedtls</text>
</g>
<!-- libcurl&#45;&gt;mbedtls -->
<g id="edge1" class="edge">
<title>libcurl&#45;&gt;mbedtls</title>
<path fill="none" stroke="#c9cacc" d="M30.8,-145.14C21.54,-135.44 11.04,-122.19 6.1,-108 0.83,-92.89 -0.29,-86.67 6.1,-72 11.5,-59.59 21.41,-48.77 31.47,-40.2"/>
<polygon fill="#c9cacc" stroke="#c9cacc" points="33.84,-42.79 39.48,-33.83 29.48,-37.31 33.84,-42.79"/>
</g>
<!-- libssh2 -->
<g id="node3" class="node">
<title>libssh2</title>
<ellipse fill="none" stroke="#2bbc8a" cx="63.1" cy="-90" rx="48.19" ry="18"/>
<text text-anchor="middle" x="63.1" y="-86.3" font-family="Fira Mono" font-size="14.00" fill="#eeeeee">libssh2</text>
</g>
<!-- libcurl&#45;&gt;libssh2 -->
<g id="edge2" class="edge">
<title>libcurl&#45;&gt;libssh2</title>
<path fill="none" stroke="#c9cacc" d="M51.8,-143.7C53.46,-135.98 55.44,-126.71 57.29,-118.11"/>
<polygon fill="#c9cacc" stroke="#c9cacc" points="60.76,-118.62 59.43,-108.1 53.91,-117.15 60.76,-118.62"/>
</g>
<!-- zlib -->
<g id="node4" class="node">
<title>zlib</title>
<ellipse fill="none" stroke="#2bbc8a" cx="162.1" cy="-90" rx="32.49" ry="18"/>
<text text-anchor="middle" x="162.1" y="-86.3" font-family="Fira Mono" font-size="14.00" fill="#eeeeee">zlib</text>
</g>
<!-- libcurl&#45;&gt;zlib -->
<g id="edge3" class="edge">
<title>libcurl&#45;&gt;zlib</title>
<path fill="none" stroke="#c9cacc" d="M71.99,-146.33C89.5,-135.58 113.38,-120.91 132.16,-109.38"/>
<polygon fill="#c9cacc" stroke="#c9cacc" points="134.23,-112.22 140.92,-104 130.56,-106.26 134.23,-112.22"/>
</g>
<!-- libssh2&#45;&gt;mbedtls -->
<g id="edge4" class="edge">
<title>libssh2&#45;&gt;mbedtls</title>
<path fill="none" stroke="#c9cacc" d="M63.1,-71.7C63.1,-63.98 63.1,-54.71 63.1,-46.11"/>
<polygon fill="#c9cacc" stroke="#c9cacc" points="66.6,-46.1 63.1,-36.1 59.6,-46.1 66.6,-46.1"/>
</g>
<!-- libgit2 -->
<g id="node5" class="node">
<title>libgit2</title>
<ellipse fill="none" stroke="#2bbc8a" cx="162.1" cy="-162" rx="48.19" ry="18"/>
<text text-anchor="middle" x="162.1" y="-158.3" font-family="Fira Mono" font-size="14.00" fill="#eeeeee">libgit2</text>
</g>
<!-- libgit2&#45;&gt;mbedtls -->
<g id="edge5" class="edge">
<title>libgit2&#45;&gt;mbedtls</title>
<path fill="none" stroke="#c9cacc" d="M179.06,-145.02C196.61,-126.5 219.34,-95.52 203.1,-72 184.32,-44.81 149.67,-31.56 119.54,-25.1"/>
<polygon fill="#c9cacc" stroke="#c9cacc" points="120,-21.63 109.52,-23.16 118.67,-28.5 120,-21.63"/>
</g>
<!-- libgit2&#45;&gt;libssh2 -->
<g id="edge6" class="edge">
<title>libgit2&#45;&gt;libssh2</title>
<path fill="none" stroke="#c9cacc" d="M140.61,-145.81C126.6,-135.9 108.13,-122.84 92.73,-111.95"/>
<polygon fill="#c9cacc" stroke="#c9cacc" points="94.72,-109.07 84.54,-106.16 90.68,-114.79 94.72,-109.07"/>
</g>
<!-- libgit2&#45;&gt;zlib -->
<g id="edge7" class="edge">
<title>libgit2&#45;&gt;zlib</title>
<path fill="none" stroke="#c9cacc" d="M162.1,-143.7C162.1,-135.98 162.1,-126.71 162.1,-118.11"/>
<polygon fill="#c9cacc" stroke="#c9cacc" points="165.6,-118.1 162.1,-108.1 158.6,-118.1 165.6,-118.1"/>
</g>
<!-- libbpf -->
<g id="node6" class="node">
<title>libbpf</title>
<ellipse fill="none" stroke="#2bbc8a" cx="271.1" cy="-234" rx="42.79" ry="18"/>
<text text-anchor="middle" x="271.1" y="-230.3" font-family="Fira Mono" font-size="14.00" fill="#eeeeee">libbpf</text>
</g>
<!-- libelf -->
<g id="node7" class="node">
<title>libelf</title>
<ellipse fill="none" stroke="#2bbc8a" cx="271.1" cy="-162" rx="42.79" ry="18"/>
<text text-anchor="middle" x="271.1" y="-158.3" font-family="Fira Mono" font-size="14.00" fill="#eeeeee">libelf</text>
</g>
<!-- libbpf&#45;&gt;libelf -->
<g id="edge8" class="edge">
<title>libbpf&#45;&gt;libelf</title>
<path fill="none" stroke="#c9cacc" d="M271.1,-215.7C271.1,-207.98 271.1,-198.71 271.1,-190.11"/>
<polygon fill="#c9cacc" stroke="#c9cacc" points="274.6,-190.1 271.1,-180.1 267.6,-190.1 274.6,-190.1"/>
</g>
<!-- libelf&#45;&gt;zlib -->
<g id="edge9" class="edge">
<title>libelf&#45;&gt;zlib</title>
<path fill="none" stroke="#c9cacc" d="M248.51,-146.5C231.94,-135.86 209.3,-121.32 191.35,-109.79"/>
<polygon fill="#c9cacc" stroke="#c9cacc" points="192.75,-106.53 182.45,-104.07 188.97,-112.42 192.75,-106.53"/>
</g>
</g>
</svg>
