<?xml version="1.0" encoding="iso-8859-1"?>
<!-- Generator: Adobe Illustrator 19.0.0, SVG Export Plug-In . SVG Version: 6.00 Build 0)  -->
<svg version="1.1" id="Layer_1" xmlns="http://www.w3.org/2000/svg" xmlns:xlink="http://www.w3.org/1999/xlink" x="0px" y="0px"
	 viewBox="0 0 512 512" style="enable-background:new 0 0 512 512;" xml:space="preserve">
<polyline style="fill:#BDCCD4;" points="408.275,239.844 456.253,263.875 456.253,504.178 55.747,504.178 55.747,263.875 
	103.808,242.728 "/>
<polygon style="fill:#6B7E87;" points="55.747,503.76 55.747,479.772 95.798,479.772 239.98,375.828 256,391.942 280.03,375.781 
	424.212,479.772 456.253,479.772 456.253,503.76 "/>
<polygon style="fill:#FF931E;" points="408.275,287.905 408.275,8.344 103.725,8.344 103.725,295.915 256,392.036 "/>
<polygon style="fill:#FFA94B;" points="408.192,295.915 392.172,307.362 392.172,7.551 408.192,7.551 "/>
<polygon style="fill:#BF6E16;" points="159.879,335.965 103.808,295.915 103.808,7.551 159.879,7.551 "/>
<g>
	<polygon style="fill:#6B7E87;" points="55.747,288.906 55.747,263.875 103.725,239.844 103.725,288.906 	"/>
	<polygon style="fill:#6B7E87;" points="456.253,288.906 456.253,263.875 408.275,239.844 408.275,288.906 	"/>
</g>
<polygon points="90.212,489.159 72.435,489.159 72.435,473.514 85.363,473.514 211.86,386.774 220.707,399.677 "/>
<polygon points="439.565,489.159 421.788,489.159 291.293,399.677 300.14,386.774 426.636,473.514 439.565,473.514 "/>
<path d="M415.576,234.791V0H95.381v237.89L47.925,258.77V512h416.15V259.04L415.576,234.791z M399.932,15.645v278.571L256,383.316
	L111.025,293.57V15.645H399.932z M448.43,496.355H63.57V268.979l31.811-13.997v28.903l-5.368-3.323H72.435v15.645h13.127
	L256,401.716l170.438-105.509h13.127v-15.645h-17.577l-6.411,3.969v-32.249l32.854,16.427V496.355z"/>
<path d="M288.182,135.502c2.384,0,4.486-1.897,6.304-5.707c1.811-3.803,2.719-8.579,2.719-14.33c0-12.476-3.585-22.8-10.746-30.986
	c-7.168-8.179-16.773-12.273-28.798-12.273c-12.033,0-22.16,4.29-30.39,12.868c-8.23,8.586-12.345,18.867-12.345,30.856
	s3.875,21.964,11.61,29.925c7.743,7.961,17.318,11.945,28.732,11.945c8.935,0,16.809-3.279,23.621-9.822l5.445,9.422
	c-3.541,3.097-8.056,5.59-13.538,7.496c-5.489,1.904-10.666,2.857-15.53,2.857c-14.774,0-27.133-4.936-37.086-14.802
	c-9.953-9.858-14.933-22.204-14.933-37.021s5.242-27.468,15.726-37.951c10.484-10.484,23.112-15.726,37.885-15.726
	c14.774,0,27.119,5.039,37.028,15.122c9.902,10.091,14.86,22.655,14.86,37.689c0,9.735-2.014,17.543-6.035,23.425
	c-4.028,5.881-9.314,8.826-15.864,8.826c-3.359,0-6.434-1.018-9.219-3.054c-2.792-2.036-4.711-4.603-5.773-7.699
	c-4.871,6.282-11.037,9.422-18.51,9.422c-7.481,0-13.981-2.829-19.514-8.492c-5.526-5.663-8.289-12.846-8.289-21.564
	s2.494-16.06,7.496-22.029c4.995-5.969,11.567-8.957,19.703-8.957c2.741,0,5.352,0.597,7.831,1.789
	c2.479,1.199,4.246,2.371,5.308,3.519l1.73,1.723v-5.439h16.583v42.336C284.198,133.292,285.529,135.502,288.182,135.502z
	 M267.745,115.464c0-4.42-1.17-8.091-3.519-11.015c-2.341-2.922-5.416-4.376-9.219-4.376c-3.81,0-6.835,1.454-9.095,4.376
	c-2.254,2.922-3.38,6.529-3.38,10.819c0,4.29,1.127,8.027,3.38,11.211c2.261,3.184,5.329,4.777,9.226,4.777
	c3.889,0,6.965-1.527,9.219-4.581C266.619,123.63,267.745,119.893,267.745,115.464z"/>
<rect x="329.009" y="40.676" width="46.934" height="15.645"/>
<g>
	<rect x="136.057" y="184.608" style="fill:#FFFFFF;" width="112.642" height="15.645"/>
	<rect x="351.954" y="63.622" style="fill:#FFFFFF;" width="23.989" height="15.645"/>
</g>
<rect x="360.298" y="88.653" width="15.645" height="15.645"/>
<rect x="136.057" y="216.94" width="143.932" height="15.645"/>
<rect x="295.633" y="216.94" width="80.31" height="15.645"/>
<rect x="136.057" y="249.273" style="fill:#FFFFFF;" width="239.886" height="15.645"/>
<rect x="136.057" y="280.562" width="39.633" height="15.645"/>
<rect x="192.378" y="280.562" width="111.599" height="15.645"/>
<rect x="319.622" y="280.562" width="56.321" height="15.645"/>
<rect x="182.991" y="312.895" style="fill:#FFFFFF;" width="129.33" height="15.645"/>
<rect x="232.011" y="344.184" width="47.977" height="15.645"/>
<rect x="136.057" y="40.676" width="15.645" height="15.645"/>
<rect x="160.046" y="40.676" style="fill:#FFFFFF;" width="15.645" height="15.645"/>
<rect x="182.991" y="40.676" width="16.688" height="15.645"/>
<g>
</g>
<g>
</g>
<g>
</g>
<g>
</g>
<g>
</g>
<g>
</g>
<g>
</g>
<g>
</g>
<g>
</g>
<g>
</g>
<g>
</g>
<g>
</g>
<g>
</g>
<g>
</g>
<g>
</g>
</svg>
